<mxfile host="app.diagrams.net" modified="2023-08-02T04:03:21.953Z" agent="Mozilla/5.0 (Macintosh; Intel Mac OS X 10_15_7) AppleWebKit/537.36 (KHTML, like Gecko) Chrome/115.0.0.0 Safari/537.36" version="21.3.6" etag="_F4F7pozvYS0qm86STrc" type="github">
  <diagram name="Page-1" id="Rq1oSXePgIImz6ynmF_V">
    <mxGraphModel>
      <root>
        <mxCell id="0" />
        <mxCell id="1" parent="0" />
      </root>
    </mxGraphModel>
  </diagram>
</mxfile>
